<?xml version="1.0" encoding="utf-8"?>
<!-- Generator: Adobe Illustrator 23.0.4, SVG Export Plug-In . SVG Version: 6.00 Build 0)  -->
<svg version="1.1" id="Layer_1" xmlns="http://www.w3.org/2000/svg" xmlns:xlink="http://www.w3.org/1999/xlink" x="0px" y="0px"
	 viewBox="0 0 72 72" style="enable-background:new 0 0 72 72;" xml:space="preserve">
<style type="text/css">
	.st0{fill:#00D632;}
	.st1{fill:#FFFFFF;}
</style>
<g id="Twitter">
	<rect class="st0" width="72" height="72"/>
</g>
<g id="Guides">
</g>
<g>
	<path class="st1" d="M44.6,29.3c0.4,0.4,1.1,0.4,1.5,0l2-2.1c0.4-0.4,0.4-1.1,0-1.6c-1.6-1.4-3.5-2.5-5.5-3.1l0.6-3.1
		c0.1-0.7-0.4-1.3-1-1.3h-4c-0.5,0-0.9,0.4-1,0.9l-0.6,2.8c-5.3,0.3-9.7,2.9-9.7,8.4c0,4.7,3.7,6.8,7.6,8.2c3.7,1.4,5.6,1.9,5.6,3.9
		c0,2-1.9,3.2-4.8,3.2c-2.6,0-5.4-0.9-7.5-3c-0.4-0.4-1.1-0.4-1.5,0c0,0,0,0,0,0L24,44.6c-0.4,0.4-0.4,1.1,0,1.6
		c1.7,1.7,3.9,2.9,6.4,3.6l-0.6,2.9c-0.1,0.7,0.4,1.3,1,1.3l4,0c0.5,0,1-0.4,1.1-0.9l0.6-2.8c6.3-0.4,10.2-3.9,10.2-9
		c0-4.7-3.8-6.7-8.5-8.3c-2.7-1-5-1.7-5-3.7c0-2,2.2-2.8,4.3-2.8C40.2,26.6,42.9,27.7,44.6,29.3L44.6,29.3z"/>
</g>
</svg>
